<?xml version="1.0" encoding="UTF-8"?>
<svg xmlns="http://www.w3.org/2000/svg" xmlns:xlink="http://www.w3.org/1999/xlink" viewBox="0 0 107.3 38.5">
  <defs>
    <style>
      .cls-1 {
        fill: none;
      }

      .cls-1, .cls-2 {
        stroke-width: 0px;
      }

      .cls-3 {
        clip-path: url(#clippath);
      }

      .cls-2 {
        fill: #fff;
      }
    </style>
    <clipPath id="clippath">
      <rect class="cls-1" x=".5" y=".5" width="106.3" height="37"/>
    </clipPath>
  </defs>
  <g id="_Слой_1" data-name="Слой 1">
    <g class="cls-3">
      <path class="cls-2" d="M14.3,6.1c4.1,0,4.9,1.7,5,2.3l.3.1h7.7s.2,0,.2-.2c0-2.6-1.5-7.3-12.6-7.3h-.9C2.5,1,1,6,1,9.6v.7c0,3.5,1.7,8.7,13,8.7h.9c2.5,0,4.6-.6,6.2-1.5,1.7-.9.3,0,.3.2v.8l.2.2h5.6l.2-.2v-9.5h-11.4l-.2.2v2.8l.2.2h2.6c.2,0,.3.2.2.3-.6.7-1.9,1.3-4.4,1.3-4.3,0-5.2-2.1-5.2-3.8v-.3c0-1.7.8-3.6,5.1-3.6ZM105.9,18.4L97.6,1.4l-.2-.1h-10.2l-.1.1-7.3,15.7v-8.1h-11l-.2.2v2.8l.2.2h2.5c.2,0,.3.2.2.3-.6.7-1.8,1.3-4.3,1.3-4.1,0-5-2.1-5-3.8v-.2c0-1.8.8-3.7,5-3.7s4.7,1.7,4.8,2.3l.2.1h7.5s.2,0,.2-.2c0-2.5-1.5-7.3-12.2-7.3h-.8c-11.1,0-12.6,5-12.6,8.6v.7c0,3.5,1.6,8.7,12.6,8.7h.8c2.1.03,4.17-.48,6-1.5.1,0,.3,0,.3.2v.8c0,.1,0,.2.2.2h12.3l.1-.1,1-2.2.1-.1h9l1,2.3h8c.2,0,.3,0,.2-.2ZM94.2,11.5h-4c-.2,0-.3-.2-.2-.3l2-4.7h.3l2.1,4.7c0,.1,0,.3-.2.3ZM53.9,6.2V1.5c0-.1,0-.2-.2-.2h-25.2l-.2.2v4.7l.2.2h8.5l.2.2v6.8c0,.1,0,.2-.2.2h-8.5l-.2.2v4.7l.2.2h25.2c.1,0,.2,0,.2-.2v-4.7c0-.1,0-.2-.2-.2h-8.4c-.1,0-.2,0-.2-.2v-6.8s0-.2.2-.2h8.4c.1,0,.2,0,.2-.2Z"/>
    </g>
  </g>
  <g id="_Слой_5" data-name="Слой 5">
    <path class="cls-2" d="M79.2,20.06v3.79c0,.14-.12.26-.26.26h-14.93c-.14,0-.26.12-.26.26v2.06c0,.14.12.26.26.26h14.47c.14,0,.26.12.26.26v3.86c0,.14-.12.26-.26.26h-14.47c-.14,0-.26.12-.26.26v5.63c0,.14-.12.26-.26.26h-8.45c-.14,0-.26-.12-.26-.26v-16.88c0-.14.12-.26.26-.26h23.9c.14,0,.26.12.26.26Z"/>
  </g>
  <g id="I">
    <path class="cls-2" d="M53.9,24.7v-4.7c0-.1,0-.2-.2-.2h-25.2l-.2.2v4.7l.2.2h8.5l.2.2v6.8c0,.1,0,.2-.2.2h-8.5l-.2.2v4.7l.2.2h25.2c.1,0,.2,0,.2-.2v-4.7c0-.1,0-.2-.2-.2h-8.4c-.1,0-.2,0-.2-.2v-6.8s0-.2.2-.2h8.4c.1,0,.2,0,.2-.2Z"/>
  </g>
  <g id="L">
    <path class="cls-2" d="M10.98,19.93v12.05c0,.14.11.25.25.25h15.93c.14,0,.25.11.25.25v4.47c0,.14-.11.25-.25.25H1.27c-.14,0-.25-.11-.25-.25v-17.02c0-.14.11-.25.25-.25h9.47c.14,0,.25.11.25.25Z"/>
  </g>
  <g id="E">
    <path class="cls-2" d="M105.95,20.01v3.75c0,.12-.09.21-.21.21h-16.1c-.12,0-.21.09-.21.21v1.78c0,.12.09.21.21.21h15.57c.12,0,.21.09.21.21v3.87c0,.12-.09.21-.21.21h-15.57c-.12,0-.21.09-.21.21v1.94c0,.12.09.21.21.21h16.34c.12,0,.21.09.21.21v3.8c0,.12-.09.21-.21.21h-25.72c-.12,0-.21-.09-.21-.21v-16.83c0-.12.09-.21.21-.21h25.47c.12,0,.21.09.21.21Z"/>
  </g>
</svg>